<?xml version="1.0" encoding="utf-8"?>
<!-- Generator: Adobe Illustrator 24.3.0, SVG Export Plug-In . SVG Version: 6.00 Build 0)  -->
<svg version="1.1" id="图层_1" xmlns="http://www.w3.org/2000/svg" xmlns:xlink="http://www.w3.org/1999/xlink" x="0px" y="0px"
	 viewBox="0 0 200 200" style="enable-background:new 0 0 200 200;" xml:space="preserve">
<style type="text/css">
	.st0{fill:#FFFFFF;}
</style>
<path d="M155.3,92.2c3.1-7.2,4.7-14.7,4.7-22.4c0-15.1-6.2-29.3-17.6-40c-11.3-10.6-26.3-16.5-42.2-16.5S69.3,19.2,58,29.8
	c-11.3,10.7-17.6,24.9-17.6,40c0,7.7,1.6,15.2,4.7,22.4c3,7,7.3,13.3,12.8,18.8c4.5,4.5,9.6,8.3,15.2,11.1c-2.2,1.7-5.1,4-7.9,6.8
	c-0.1,0.1-0.3,0.3-0.4,0.4c-0.1,0-0.1,0.1-0.2,0.1c-6.4,6.3-9.1,11.6-8.3,16.1c0,0,0,0.1,0,0.1c0,0,0,0.1,0,0.1c0,0.1,0,0.1,0,0.2
	c0,0.1,0.1,0.3,0.1,0.4c1.3,4.6,4.5,7.1,8.8,7.1h0.2c0,0.1,0,0.3-0.1,0.4l-0.1,0.3c0,0.1,0,0.1,0,0.2c0,0.2-0.1,0.4-0.1,0.5
	c0,0.2-0.1,0.3-0.1,0.5l0,0.3c0,0,0,0.1,0,0.2c0,0.2-0.1,0.4-0.1,0.6c0,0.2-0.1,0.4-0.1,0.5l0,0.2c0,0,0,0.1,0,0.1
	c0,0.2-0.1,0.5-0.1,0.7c0,0.2-0.1,0.4-0.1,0.6l0,0.2v0.1c0,0.1,0,0.2,0,0.3c0,0.4-0.1,0.8-0.1,1.2l0,0.1v0l-0.2,1.6
	c0,0.1,0,0.2,0,0.3v0.1c0,0.1,0,0.1,0,0.2c-0.1,0.8-2.3,18.8,9.4,22.9c2.1,0.7,4.1,1.1,6,1.1c2.2,0,4.2-0.5,6.2-1.4
	c4.1-2,6.5-5.6,7.6-7.9c2.7,0.8,5,1.3,6.9,1.3c1.8,0,4-0.4,6.4-1.2c1.2,2.2,3.5,5.8,7.6,7.8c1.9,0.9,4,1.4,6.2,1.4
	c1.9,0,3.9-0.4,6-1.1c10.4-3.6,9.8-23,9.7-23.5c-0.3-2.9-0.7-5.8-1.2-8.6c1-0.1,2-0.3,2.9-0.7h0c0.1,0,0.2-0.1,0.3-0.1
	c0.1,0,0.2-0.1,0.2-0.1c0.1,0,0.1-0.1,0.2-0.1c0.1-0.1,0.3-0.1,0.4-0.2c0,0,0,0,0,0c2.1-1.1,3.6-2.9,4.4-5.3l0.2-0.6v0
	c1.4-4.9-1.7-10.8-9.2-17.9c-2.7-2.5-5.4-4.7-7.4-6.2c5.6-2.9,10.7-6.6,15.2-11.1C147.9,105.5,152.2,99.2,155.3,92.2L155.3,92.2z
	 M154.1,69.8c0,11.1-3.7,21.5-9.9,30.2l-8-2.8c-0.3-2.1,0.1-5.2,1-8.5c0.9-0.6,1.7-1.2,2.4-2c3-3,4.7-7.1,4.7-11.4
	c0-1.7-0.3-3.3-0.7-4.8c0.2-0.4,0.3-0.7,0.4-0.9l9.9-3.8C154,67.1,154.1,68.5,154.1,69.8L154.1,69.8z M134.2,96.5l-18.2-6.4
	c-0.4-1-0.3-2.5,0-4.2l0.8,0.8c3,3,7.1,4.7,11.4,4.7c2.3,0,4.6-0.5,6.7-1.4C134.4,92.4,134.1,94.6,134.2,96.5z M116.9,77.9
	c-2-1.2-4.6-5.6-6-8.6l14.4-24.6c1,4.9,3.8,15.7,9.4,21.5l-8,8L116.9,77.9z M123.2,77.6l-6.8,6.8c0.4-1.7,1-3.5,1.5-4.8L123.2,77.6
	L123.2,77.6z M113.9,89.3l-11.1-3.9l12.7-4.9C114.7,82.8,113.7,86.5,113.9,89.3z M114.8,78.8l-12.2,4.7l7.1-12.1
	C110.8,73.4,112.7,76.8,114.8,78.8z M113.6,91.3c-1.5,1.3-3.9,3.6-5.2,5.7l-5.8-9.6L113.6,91.3L113.6,91.3z M115.7,92.1l16.4,5.8
	c-1.9,0.7-4.6,1.7-7.2,2.9c-5.4,2.5-8.7,4.8-9.9,7.2l-5.4-8.8C110.1,97.1,113.4,93.9,115.7,92.1L115.7,92.1z M128.3,87.5
	c-2.6,0-5.1-0.8-7.1-2.3l17-17c3.4,4.7,3,11.4-1.3,15.7C134.6,86.2,131.5,87.5,128.3,87.5z M153.7,63.8L142.6,68
	c-0.8-1.5-1.8-2.9-3-4.1l-1.4-1.4l-2.2,2.2c-6.3-6.6-8.9-20.9-9.2-22.7l7-11.9C144.6,38.3,152,50.2,153.7,63.8z M101.2,19.2
	c11.6,0.2,22.3,3.8,31,9.9L125,41.2c-6.1,1.1-12-0.1-17.6-3.4c-3.1-1.8-5.3-3.9-6.2-4.9L101.2,19.2L101.2,19.2z M101.2,35.7
	c1.2,1.1,3,2.5,5.2,3.8c3.9,2.3,9.9,4.7,17.4,3.9l-14.5,24.8c-2.4-0.4-6.3-2.9-8.1-4.3L101.2,35.7L101.2,35.7z M101.2,66.4
	c1.8,1.2,4.6,3,7,3.6l-7,12C101.2,82,101.2,66.4,101.2,66.4z M101.2,88.9l5.3,8.8c-1.6-0.3-3.8-0.4-5.3,0.1
	C101.2,97.8,101.2,88.9,101.2,88.9z M101.2,100.1c0.8-1.1,4.3-0.8,6.7-0.1l5.3,8.7c-2.7-0.4-7.2-0.6-12,0.8V100.1z M101.2,111.6
	c5.7-1.9,11.4-1.1,13.3-0.7l5.1,8.4c-5.7,2.2-12,3.6-18.4,3.7V111.6z M126.1,141.6c0.3,0.8,0.5,1.7,0.7,2.5c-4.5,2-9,3.5-13.3,4.5
	l-4-12.5c2.9-0.6,5.7-1.6,8.5-2.9l8.1,6.3C125.9,140.3,125.9,141,126.1,141.6L126.1,141.6z M127.3,146.1c1.1,4.4,2,9.2,2.6,14.2
	h-12.7l-3.1-9.7C118.4,149.5,122.8,148,127.3,146.1z M109,134.4l-1.9-6c1.3-0.2,2.6-0.4,3.8-0.6l5.4,4.2
	C113.9,133,111.4,133.8,109,134.4L109,134.4z M113.4,127.3c2.4-0.6,4.8-1.3,7.2-2.2h0.8c0.7,0.5,1.8,1.3,3.2,2.4
	c-2.1,1.4-4.2,2.6-6.3,3.6L113.4,127.3L113.4,127.3z M101,128.8c1.3,0,2.7-0.1,4-0.2l2,6.2c-2,0.4-4,0.5-6,0.5V128.8z M101,137.2
	c1.8,0,3.5-0.2,5.3-0.4c0.4-0.1,0.9-0.1,1.3-0.2l4,12.5c-3.6,0.8-7.2,1.2-10.6,1.2V137.2z M101,152.3c1.9,0,3.9-0.2,5.9-0.4
	c1.8-0.2,3.5-0.5,5.3-0.9l3,9.3H101L101,152.3L101,152.3z M99.2,19.2V32L99,32.4c-4.6,6.8-22.3,6.3-26.1,6.1l-5.4-8.8
	C76.3,23.3,87.3,19.4,99.2,19.2z M82,130.9c-2.9-1.4-4.9-2.8-6-3.6c1.2-1,2.3-1.7,2.9-2.2h0.8c2.3,0.8,4.6,1.5,6.9,2.1L82,130.9
	L82,130.9z M89.2,127.7c1.2,0.2,2.5,0.4,3.8,0.6l-1.9,5.9c-0.3-0.1-0.7-0.2-1-0.3c-2.3-0.6-4.3-1.3-6.2-2.1L89.2,127.7L89.2,127.7z
	 M82.2,133.2c2.1,1,4.6,1.9,7.3,2.6c0.3,0.1,0.7,0.2,1,0.3l-3.9,12.3c-0.7-0.2-1.4-0.4-2.1-0.7c-4.2-1.6-7.6-3.6-10.3-5.6l0.1-0.4
	c0.2-0.7,0.2-1.5-0.2-2.1C74.1,139.5,82.2,133.2,82.2,133.2z M83.7,149.4c0.8,0.3,1.5,0.5,2.3,0.8l-3.2,10.1H70.5c0-0.1,0-0.2,0-0.3
	c0-0.2,0-0.3,0.1-0.5c0-0.2,0.1-0.5,0.1-0.7c0-0.3,0.1-0.5,0.1-0.7c0-0.3,0.1-0.5,0.1-0.8c0-0.2,0.1-0.4,0.1-0.7l0.1-0.8
	c0-0.2,0.1-0.4,0.1-0.6c0-0.3,0.1-0.6,0.1-0.8c0-0.2,0.1-0.4,0.1-0.5c0.1-0.3,0.1-0.6,0.2-0.9c0-0.2,0.1-0.3,0.1-0.5
	c0.1-0.3,0.1-0.6,0.2-0.8c0-0.2,0.1-0.3,0.1-0.5c0.5-2.5,1.1-4.9,1.7-7.2C76.3,146,79.6,147.9,83.7,149.4L83.7,149.4z M87.9,150.8
	c3.6,1,7.3,1.5,11.2,1.6v8H84.8L87.9,150.8z M88.5,148.9l4-12.4c2.2,0.4,4.4,0.7,6.6,0.7v13.1C95.4,150.3,91.9,149.8,88.5,148.9z
	 M93,134.6l1.9-6.1c1.3,0.1,2.7,0.2,4.1,0.2v6.5C97.1,135.2,95.1,135,93,134.6z M81.5,119.5l6.2-10.5c3.8-0.9,9.7,1.7,11.6,2.5v11.4
	C93,122.8,87.1,121.6,81.5,119.5z M64.2,68.2l17,17c-2.1,1.5-4.5,2.3-7.1,2.3c-3.2,0-6.3-1.3-8.6-3.6c-2.3-2.3-3.6-5.4-3.6-8.6
	C61.9,72.7,62.7,70.3,64.2,68.2z M87.3,82l9.9,3.5l-9.6,3.7C87.8,87.6,88,84.5,87.3,82z M98.1,87.3l-4.9,8.4
	c-0.7-1.6-1.9-3.8-3.5-5.2L98.1,87.3z M86.4,79.6c1.3-1.3,3.7-4.1,4.6-7.7l7.1,11.8C98.1,83.8,86.4,79.6,86.4,79.6z M84.3,78.9
	l-5.9-2.1L66,64.4c2.7-6,6-14.5,6.9-22.3l16.5,27.2C89.1,74.3,85.1,78.2,84.3,78.9z M85.7,84.2L81.6,80l3.2,1.1
	C85.3,81.9,85.6,82.9,85.7,84.2z M74.1,91.4c4.3,0,8.3-1.7,11.4-4.7l0.4-0.4c0,1.3-0.2,2.6-0.3,3.7l0,0.1l-12.3,4.7
	c0-0.8-0.2-2-0.4-3.4C73.2,91.3,73.7,91.4,74.1,91.4z M87.5,91.4c2.1,1,3.8,4.6,4.5,6.5l-5,8.5c-2-2.5-6.6-8.1-11.2-10.4L87.5,91.4z
	 M89.4,106.9h-0.5l4.9-8.3c1.7-0.7,4.2,0.8,5.5,1.7v9C97.1,108.4,93,106.9,89.4,106.9z M95,96.4l4.2-7.2v8.7
	C98.1,97.3,96.6,96.5,95,96.4z M91.5,69.1c1.2-0.6,4.1-2.1,7.7-3.3v16.1L91.5,69.1z M90.5,67.5l-16.4-27c5.3,0.2,19.2,0.2,25.1-5.4
	v28.7C95,65.2,91.8,66.8,90.5,67.5z M65.9,30.8l5.2,8.5v0c-0.3,7.8-3.7,17-6.6,23.6l-0.4-0.4l-1.4,1.4c-1.7,1.7-3,3.8-3.8,6
	l-12.4-4.4C47.7,51.6,55,39.2,65.9,30.8z M56.9,101c-6.6-8.8-10.6-19.6-10.6-31.2c0-0.7,0-1.5,0.1-2.2l12.1,4.3
	C58.2,73,58,74.1,58,75.3c0,4.3,1.7,8.3,4.7,11.4c2.2,2.2,5,3.8,8.1,4.4c0.4,2.1,0.4,3.8,0.5,4.5L56.9,101z M58.2,102.6l14.9-5.7
	c4.4,0.9,10.3,7.9,12.8,11.2l-6.2,10.6C71.2,115.2,63.8,109.6,58.2,102.6z M66.7,147.4c-0.1,0-0.2,0-0.2,0h0c-0.7,0.1-1.5,0-2.2-0.3
	l3.1-2.4C67.1,145.7,66.9,146.5,66.7,147.4z M68.2,141.7l-5.5,4.3c-0.2-0.3-0.4-0.7-0.5-1.2c0-0.1,0-0.1,0-0.2c0,0,0-0.1,0-0.1
	s0-0.1,0-0.1c0-0.4,0-0.8,0.1-1.3c0-0.2,0.1-0.4,0.2-0.7c0.1-0.2,0.2-0.5,0.3-0.7c0.1-0.1,0.1-0.3,0.2-0.4c0.1-0.3,0.3-0.5,0.4-0.8
	c0-0.1,0.1-0.1,0.1-0.2c0.6-1.1,1.5-2.3,2.5-3.5c0.4,0.6,1.4,1.7,2.9,3.2C68.5,140.5,68.4,141.1,68.2,141.7L68.2,141.7z M67.2,135.3
	c0.8-0.8,1.6-1.7,2.6-2.6c0.8-0.7,1.6-1.5,2.3-2.1c0,0,0.1-0.1,0.1-0.1c0.1-0.1,0.2-0.2,0.3-0.2c0.1-0.1,0.3-0.2,0.4-0.3
	c0.1,0,0.1-0.1,0.1-0.1c0.1-0.1,0.3-0.2,0.4-0.4l0,0c0.2-0.2,0.4-0.3,0.5-0.4c0.1-0.1,0.3-0.2,0.4-0.4c0.9,0.7,2.9,2.1,5.8,3.7
	l-7.5,5.9c-0.1-0.1-0.2-0.1-0.4-0.1c-0.9-0.3-1.8-0.1-2.5,0.4C68.1,136.6,67.2,135.4,67.2,135.3L67.2,135.3z M83.3,179.9
	c-2.2,1.1-4.7,1.1-7.7,0.1c-4.6-1.6-5.6-8.1-5.7-12.5l17.6,8.3C86.8,177.2,85.4,178.9,83.3,179.9L83.3,179.9z M100.2,173.7
	c-5.2,0-16.9-5.3-25.2-9.5h50.3C117,168.4,105.4,173.7,100.2,173.7z M124.7,180c-4,1.4-7.3,0.8-10-1.7c-0.8-0.8-1.5-1.7-2-2.4
	l17.7-8.3C130.3,171.8,129.3,178.3,124.7,180L124.7,180z M133.7,147.4c-0.2-0.8-0.4-1.5-0.5-2.3l2.8,2.1
	C135.2,147.5,134.4,147.5,133.7,147.4z M138.3,144.3L138.3,144.3c0,0.1,0,0.2,0,0.3l-0.1,0.2c-0.2,0.5-0.4,1-0.6,1.3l-3.9-3.1
	c1.2-0.6,2.5-1.3,3.8-2.1C138.1,142.3,138.4,143.4,138.3,144.3L138.3,144.3z M129.6,131.7C129.6,131.7,129.7,131.8,129.6,131.7
	c0.2,0.2,0.3,0.2,0.3,0.3c0.1,0.1,0.1,0.1,0.2,0.2c0.1,0.1,0.1,0.1,0.2,0.2c0.1,0.1,0.1,0.1,0.2,0.2c0,0,0.1,0.1,0.1,0.1
	c0.1,0.1,0.2,0.2,0.3,0.3c0.1,0.1,0.1,0.1,0.2,0.2c0.1,0.1,0.2,0.2,0.3,0.3l0.2,0.2l0.3,0.3l0.2,0.2l0.3,0.3
	c0.1,0.1,0.1,0.1,0.2,0.2c0.1,0.1,0.2,0.2,0.2,0.3c0.1,0.1,0.1,0.1,0.2,0.2c0.1,0.1,0.1,0.2,0.2,0.2c0.1,0.1,0.1,0.2,0.2,0.2
	c0.1,0.1,0.1,0.1,0.2,0.2s0.2,0.2,0.2,0.3c0.1,0.1,0.1,0.1,0.2,0.2c0.1,0.1,0.2,0.2,0.2,0.3c0,0,0.1,0.1,0.1,0.1
	c0.1,0.1,0.2,0.2,0.3,0.3c0,0,0.1,0.1,0.1,0.1c0.1,0.1,0.2,0.2,0.3,0.3c0,0,0,0,0.1,0.1l0.3,0.4c0,0,0,0,0,0
	c0.1,0.1,0.2,0.3,0.3,0.4c0.3,0.4,0.6,0.8,0.8,1.2c-1.4,0.8-2.9,1.6-4.3,2.3c-0.2-0.6-0.3-1.2-0.5-1.7c-0.5-1.5-2.1-2.4-3.7-1.9
	c-0.2,0.1-0.4,0.2-0.6,0.3l-7.4-5.8c2.1-1.1,4.2-2.3,6.2-3.6C127.3,129.7,128.5,130.7,129.6,131.7z M121.4,118.5l-5-8.2l0-0.2
	c-0.2-3.9,11.1-8.8,18.7-11.2l7.9,2.8C137.4,108.9,129.9,114.7,121.4,118.5L121.4,118.5z"/>
<path class="st0" d="M138.1,68.2l-17,17c2.1,1.5,4.5,2.3,7.1,2.3c3.2,0,6.3-1.3,8.6-3.6C141.1,79.6,141.6,72.9,138.1,68.2z
	 M74.1,87.5c2.6,0,5.1-0.8,7.1-2.3l-17-17c-1.5,2.1-2.3,4.5-2.3,7.1c0,3.2,1.3,6.3,3.6,8.6C67.8,86.2,70.8,87.5,74.1,87.5z"/>
</svg>
