<?xml version="1.0" standalone="no"?><!DOCTYPE svg PUBLIC "-//W3C//DTD SVG 1.1//EN" "http://www.w3.org/Graphics/SVG/1.1/DTD/svg11.dtd"><svg t="1718391051346" class="icon" viewBox="0 0 1024 1024" version="1.1" xmlns="http://www.w3.org/2000/svg" p-id="7898" xmlns:xlink="http://www.w3.org/1999/xlink" width="200" height="200"><path d="M515.74784 1014.8352c-273.72544 0-497.37728-222.98624-497.37728-496.71168 0-274.39104 222.98624-497.37728 497.37728-497.37728 274.39104 0 497.37728 222.98624 497.37728 497.37728C1013.12 791.84896 790.13888 1014.8352 515.74784 1014.8352L515.74784 1014.8352zM515.74784 82.83648c-239.67744 0-435.28704 194.944-435.28704 435.28704 0 239.67744 194.944 435.28704 435.28704 435.28704 239.67744 0 435.28704-194.944 435.28704-435.28704C951.03488 277.78048 756.09088 82.83648 515.74784 82.83648L515.74784 82.83648zM515.74784 813.21472c-98.14016 0-190.94016-42.7264-254.3616-117.504-11.34592-13.35296-9.344-32.71168 3.33824-44.06272 12.68224-11.35104 32.7168-9.344 44.06272 3.33824 52.07552 60.75392 127.51872 96.13824 207.63136 96.13824 79.44704 0 155.55584-34.71872 207.63136-96.13824 11.35104-13.35296 30.70976-14.68928 43.39712-3.33824 13.35296 11.35104 14.68928 30.70976 3.33824 43.39712C706.68288 769.8176 613.88288 813.21472 515.74784 813.21472L515.74784 813.21472zM357.51936 515.456c-27.37152 0-50.0736-22.69696-50.0736-50.0736l0-68.096c0-27.37152 22.69696-50.0736 50.0736-50.0736 27.37152 0 50.06848 22.69696 50.06848 50.0736l0 68.096C407.59296 492.75392 384.89088 515.456 357.51936 515.456L357.51936 515.456zM673.9712 515.456c-27.37152 0-50.0736-22.69696-50.0736-50.0736l0-68.096c0-27.37152 22.69696-50.0736 50.0736-50.0736 27.37152 0 50.06848 22.69696 50.06848 50.0736l0 68.096C724.0448 492.75392 702.01344 515.456 673.9712 515.456L673.9712 515.456z" fill="#262536" p-id="7899"></path></svg>